<?xml version="1.0" standalone="no"?>
<!DOCTYPE svg PUBLIC "-//W3C//DTD SVG 20010904//EN"
 "http://www.w3.org/TR/2001/REC-SVG-20010904/DTD/svg10.dtd">
<svg version="1.0" xmlns="http://www.w3.org/2000/svg"
 width="700.000000pt" height="700.000000pt" viewBox="0 0 700.000000 700.000000"
 preserveAspectRatio="xMidYMid meet">
<metadata>
Created by potrace 1.14, written by Peter Selinger 2001-2017
</metadata>
<g transform="translate(0.000000,700.000000) scale(0.100000,-0.100000)"
fill="#000000" stroke="none">
<path d="M2510 6114 c-194 -32 -352 -129 -476 -291 -88 -116 -140 -285 -137
-445 1 -59 28 -207 42 -236 5 -10 15 -30 22 -47 52 -119 173 -253 287 -322
184 -110 403 -134 606 -68 151 49 294 160 381 295 42 65 87 168 99 225 4 17 9
41 12 55 2 14 5 68 5 120 1 445 -401 787 -841 714z"/>
<path d="M4338 6125 c-2 -2 -28 -5 -58 -8 -50 -5 -81 -11 -118 -23 -7 -2 -16
-4 -20 -5 -29 -8 -125 -56 -168 -85 -59 -40 -174 -146 -174 -162 0 -6 -4 -12
-9 -14 -26 -9 -97 -159 -123 -258 -20 -76 -26 -218 -13 -290 37 -208 152 -382
325 -495 361 -234 850 -103 1043 280 59 117 77 195 78 335 0 124 -25 228 -79
330 -127 238 -359 384 -624 395 -32 1 -59 1 -60 0z"/>
<path d="M1171 4944 c-196 -41 -370 -160 -473 -325 -84 -134 -114 -247 -111
-414 4 -188 81 -364 214 -492 72 -69 93 -85 169 -126 107 -58 197 -80 330 -81
63 -1 129 2 145 5 51 11 117 30 134 39 9 4 42 21 74 37 166 81 310 260 363
450 22 77 27 261 10 340 -25 119 -91 248 -176 346 -43 49 -140 122 -212 158
-131 66 -325 92 -467 63z"/>
<path d="M5545 4943 c-183 -38 -344 -142 -451 -293 -191 -268 -179 -623 29
-880 202 -249 550 -336 848 -211 327 137 508 495 424 842 -64 266 -266 466
-545 540 -66 17 -225 18 -305 2z"/>
<path d="M3295 3925 c-190 -31 -337 -117 -526 -305 -58 -58 -130 -134 -160
-170 -30 -36 -58 -70 -64 -76 -5 -6 -28 -33 -50 -60 -42 -51 -88 -104 -165
-194 -26 -30 -105 -122 -175 -205 -178 -210 -178 -211 -364 -400 -264 -270
-377 -408 -472 -575 -140 -243 -190 -524 -128 -720 95 -299 322 -531 604 -615
80 -24 309 -24 430 0 11 2 45 7 76 10 31 3 65 7 75 9 11 2 46 7 79 10 33 4 71
8 85 11 14 2 48 7 75 10 28 3 84 10 125 15 41 6 104 13 140 15 36 3 83 7 105
10 251 25 755 25 1025 0 19 -2 64 -6 100 -9 36 -3 81 -8 100 -10 19 -3 60 -8
91 -11 31 -3 65 -7 75 -9 11 -2 51 -7 89 -12 39 -4 72 -8 75 -9 3 -1 37 -5 75
-9 39 -5 77 -9 85 -11 8 -1 42 -6 75 -9 33 -4 83 -9 110 -12 100 -12 220 -11
276 2 302 70 556 325 649 649 26 91 22 281 -9 397 -73 276 -217 490 -587 868
-100 102 -210 219 -245 260 -35 41 -74 86 -85 100 -12 14 -66 77 -119 140
-118 140 -117 138 -234 275 -52 61 -117 137 -145 170 -74 88 -243 256 -303
302 -95 74 -211 131 -333 164 -59 16 -365 19 -455 4z"/>
</g>
</svg>
